<svg xmlns="http://www.w3.org/2000/svg" xmlns:xlink="http://www.w3.org/1999/xlink" version="1.1" x="0px" y="0px" viewBox="0 0 100 125" style="enable-background:new 0 0 100 100;" xml:space="preserve"><path d="M79,33.4c-0.1-1-0.9-1.9-2-1.9H66v-7c0-8.8-7.2-16-16-16s-16,7.2-16,16v7H23c-1,0-1.9,0.8-2,1.9l-4,56  c0,0.6,0.2,1.1,0.5,1.5s0.9,0.6,1.5,0.6h62c0.6,0,1.1-0.2,1.5-0.6c0.4-0.4,0.6-1,0.5-1.5L79,33.4z M38,24.5c0-6.6,5.4-12,12-12  c6.6,0,12,5.4,12,12v7H38V24.5z M21.1,87.5l3.7-52H34v13c0,1.1,0.9,2,2,2s2-0.9,2-2v-13h24v13c0,1.1,0.9,2,2,2s2-0.9,2-2v-13h9.1  l3.7,52H21.1z"/><text x="0" y="115" fill="#000000" font-size="5px" font-weight="bold" font-family="'Helvetica Neue', Helvetica, Arial-Unicode, Arial, Sans-serif">Created by Blair Adams</text><text x="0" y="120" fill="#000000" font-size="5px" font-weight="bold" font-family="'Helvetica Neue', Helvetica, Arial-Unicode, Arial, Sans-serif">from the Noun Project</text></svg>